<?xml version="1.0" encoding="UTF-8"?>
<svg xmlns="http://www.w3.org/2000/svg" xmlns:xlink="http://www.w3.org/1999/xlink" width="3750" height="3750" viewBox="0 0 3750 3750">
<rect x="-375" y="-375" width="4500" height="4500" fill="rgb(100%, 100%, 100%)" fill-opacity="1"/>
<path fill-rule="evenodd" fill="rgb(0%, 0%, 0%)" fill-opacity="1" d="M 1971.121094 2972.371094 C 2149.050781 2833.734375 2294.75 2705.230469 2455.21875 2599.078125 C 2656.691406 2465.890625 2818.949219 2296.980469 2961.308594 2106.589844 C 3149.980469 1854.191406 3252.808594 1571.390625 3246.980469 1253.019531 C 3244.398438 1112.390625 3210.929688 980.898438 3126.25 866.308594 C 3041.28125 751.300781 2955.570312 725.960938 2815.628906 759.011719 C 2657 796.558594 2548.261719 899.269531 2477.160156 1034.480469 C 2387.570312 1204.710938 2311.460938 1382.671875 2239.921875 1561.429688 C 2048.609375 1893.410156 1684.5 1231.410156 1526.660156 1083.75 C 1374.109375 943.988281 1205.539062 823.378906 1002.128906 767.398438 C 675.359375 677.441406 440.945312 892.710938 508.0625 1221.570312 C 582.96875 1588.730469 782.15625 1897.480469 1035.570312 2155.128906 C 1321.71875 2446.019531 1650.019531 2695.410156 1971.121094 2972.371094 M 2063.339844 1345.570312 C 2151.378906 1193.230469 2227.070312 1065.769531 2299.128906 936.289062 C 2399.808594 755.5 2555.351562 651.46875 2752.128906 600.738281 C 3083.289062 515.21875 3326.210938 672.28125 3430.46875 995.121094 C 3510.371094 1242.769531 3472.691406 1487.808594 3392.609375 1730 C 3253.101562 2152.421875 2957.660156 2451.269531 2620.589844 2719.25 C 2464.289062 2843.457031 2309.511719 2969.765625 2156.871094 3098.585938 C 2038.101562 3198.867188 1990.351562 3196.644531 1872.871094 3093.144531 C 1774.71875 3006.652344 1671.539062 2925.222656 1565.179688 2849.171875 C 1248.960938 2622.929688 950.066406 2376.121094 707.265625 2071.558594 C 500.210938 1811.820312 322.21875 1531.871094 279 1190.71875 C 253.570312 989.289062 359.003906 780.53125 536.570312 692.058594 C 752.605469 584.351562 976.324219 569.710938 1205.78125 657.820312 C 1512.769531 775.789062 1737.738281 999.609375 1958.871094 1229.308594 C 1988.550781 1260.210938 2016.25 1293.101562 2063.339844 1345.570312 "/>
</svg>
