<svg width="20" height="26" viewBox="0 0 20 26" fill="none" xmlns="http://www.w3.org/2000/svg">
<g clip-path="url(#clip0_213_1167)">
<path d="M0 0H20V26H0V0Z" fill="white"/>
<path d="M0 0V26H20V21.892H17.24L16.22 20.3408L15.16 21.892H7.32V13.6328H4.7332L7.9668 4.11684H11.1132L11.8732 6.27484V4.11684H15.78L16.4332 6.37884L17.0732 4.11684H20V0H0ZM17.74 5.46L16.7132 8.97884L16.44 9.93251L16.16 8.97884L15.1268 5.46H12.8668V12.3937H14.2268V7.87851L14.22 6.968L14.4868 7.87851L15.7868 12.3937H17.08L18.3868 7.87851L18.64 6.97684V12.3937H20V5.46H17.74ZM8.7 5.46L6.34 12.3937H7.88641L8.3 11.0588H10.8868L11.3 12.3937H12.8668L10.52 5.46H8.7ZM9.32641 7.80884L9.5932 6.94251L9.86 7.80884L10.4132 9.55916H8.7732L9.32641 7.80884ZM17.8468 13.6417L16.24 15.886L14.64 13.6417H8.4132V20.5488H12.8668V19.0498H9.7732V17.8448H12.8068V16.3545H9.7732V15.1408H12.8668V13.6418L15.3532 17.108L12.8668 20.5488H14.5868L16.2068 18.2957L17.82 20.5488H19.5864L17.0932 17.082L19.5864 13.6417H17.8468ZM18.4932 17.0737L20 19.0668V15.106L18.4932 17.0737Z" fill="#006FCF"/>
</g>
<defs>
<clipPath id="clip0_213_1167">
<rect width="20" height="26" fill="white"/>
</clipPath>
</defs>
</svg>
