<svg width="44" height="26" viewBox="0 0 44 26" fill="none" xmlns="http://www.w3.org/2000/svg">
<rect x="0.05" y="0.05" width="43.9" height="25.9" fill="white" stroke="black" stroke-width="0.1"/>
<path d="M17.8438 6.78418H25.141V19.8961H17.8438V6.78418Z" fill="#FF5F00"/>
<path d="M18.3089 13.3397C18.3089 10.6757 19.5598 8.31272 21.4825 6.78373C20.0695 5.67179 18.2858 5 16.3398 5C11.7297 5 8 8.72966 8 13.3397C8 17.9498 11.7297 21.6795 16.3397 21.6795C18.2857 21.6795 20.0694 21.0077 21.4825 19.8956C19.5598 18.3899 18.3089 16.0038 18.3089 13.3397Z" fill="#EB001B"/>
<path d="M34.9903 13.3397C34.9903 17.9497 31.2607 21.6795 26.6506 21.6795C24.7047 21.6795 22.9209 21.0077 21.5078 19.8956C23.4537 18.3668 24.6816 16.0038 24.6816 13.3397C24.6816 10.6757 23.4305 8.31272 21.5078 6.78373C22.9208 5.67179 24.7047 5 26.6506 5C31.2607 5 34.9903 8.75288 34.9903 13.3397Z" fill="#F79E1B"/>
</svg>
