<svg width="121" height="126" viewBox="0 0 121 126" fill="none" xmlns="http://www.w3.org/2000/svg">
<path d="M118.694 59.4585C118.694 92.2964 92.1233 118.917 59.3469 118.917C26.5706 118.917 0 92.2964 0 59.4585C0 26.6204 26.5706 0 59.3469 0C92.1233 0 118.694 26.6204 118.694 59.4585Z" fill="#E8F6F6"/>
<path d="M46.224 32.4942H26.6641V12.459H46.224V32.4942Z" fill="#F4FBFB"/>
<path d="M46.2344 32.4942H54.293V12.459H46.2344V32.4942Z" fill="#D8EEEE"/>
<path d="M38.8093 20.7678H34.0703V12.459H38.8093V20.7678Z" fill="#D8EEEE"/>
<path d="M47.5781 13.9668L53.274 30.6567" stroke="#F4FBFB" stroke-width="0.47346" stroke-miterlimit="10"/>
<path d="M47.5781 30.6565L53.274 13.9668" stroke="#F4FBFB" stroke-width="0.47346" stroke-miterlimit="10"/>
<path d="M68.81 32.4942H49.25V12.459H68.81V32.4942Z" fill="#F4FBFB"/>
<path d="M68.7969 32.4942H76.8555V12.459H68.7969V32.4942Z" fill="#D8EEEE"/>
<path d="M61.3796 20.7678H56.6406V12.459H61.3796V20.7678Z" fill="#D8EEEE"/>
<path d="M70.1172 13.9668L75.813 30.6567" stroke="#F4FBFB" stroke-width="0.47346" stroke-miterlimit="10"/>
<path d="M70.1172 30.6565L75.813 13.9668" stroke="#F4FBFB" stroke-width="0.47346" stroke-miterlimit="10"/>
<path d="M80.8516 34.9531H17.6016V32.2754H80.8516V34.9531Z" fill="#D8EEEE"/>
<path d="M61.599 81.1876H42.0391V61.1523H61.599V81.1876Z" fill="#F4FBFB"/>
<path d="M61.5938 81.1876H69.6524V61.1523H61.5938V81.1876Z" fill="#D8EEEE"/>
<path d="M54.1764 69.4611H49.4375V61.1523H54.1764V69.4611Z" fill="#D8EEEE"/>
<path d="M62.9141 62.6582L68.6099 79.3481" stroke="#F4FBFB" stroke-width="0.47346" stroke-miterlimit="10"/>
<path d="M62.9141 79.3481L68.6099 62.6582" stroke="#F4FBFB" stroke-width="0.47346" stroke-miterlimit="10"/>
<path d="M84.1615 81.1876H64.6016V61.1523H84.1615V81.1876Z" fill="#F4FBFB"/>
<path d="M84.1484 81.1876H92.2071V61.1523H84.1484V81.1876Z" fill="#D8EEEE"/>
<path d="M76.7468 69.4611H72.0078V61.1523H76.7468V69.4611Z" fill="#D8EEEE"/>
<path d="M85.5 62.6582L91.1958 79.3481" stroke="#F4FBFB" stroke-width="0.47346" stroke-miterlimit="10"/>
<path d="M85.5 79.3481L91.1958 62.6582" stroke="#F4FBFB" stroke-width="0.47346" stroke-miterlimit="10"/>
<path d="M73.7553 60.9747H54.1953V40.9395H73.7553V60.9747Z" fill="#F4FBFB"/>
<path d="M73.75 60.9747H81.8086V40.9395H73.75V60.9747Z" fill="#D8EEEE"/>
<path d="M66.3327 49.2483H61.5938V40.9395H66.3327V49.2483Z" fill="#D8EEEE"/>
<path d="M75.0625 42.4434L80.7583 59.1333" stroke="#F4FBFB" stroke-width="0.47346" stroke-miterlimit="10"/>
<path d="M75.0625 59.1333L80.7583 42.4434" stroke="#F4FBFB" stroke-width="0.47346" stroke-miterlimit="10"/>
<path d="M120.442 83.6465H32.9766V80.9688H120.442V83.6465Z" fill="#D8EEEE"/>
<path d="M72.9686 114.491H44.6719V85.5078H72.9686V114.491Z" fill="url(#paint0_linear_2180_5203)"/>
<path d="M72.9531 114.491H84.6109V85.5078H72.9531V114.491Z" fill="#DB676B"/>
<path d="M62.2382 97.5274H55.3828V85.5078H62.2382V97.5274Z" fill="#DB676B"/>
<path d="M93.1639 85.5732H64.8672V56.5898H93.1639V85.5732Z" fill="url(#paint1_linear_2180_5203)"/>
<path d="M93.1406 85.5732H104.798V56.5898H93.1406V85.5732Z" fill="#DB676B"/>
<path d="M82.4413 68.6095H75.5859V56.5898H82.4413V68.6095Z" fill="#DB676B"/>
<path d="M102.469 114.491H74.1719V85.5078H102.469V114.491Z" fill="url(#paint2_linear_2180_5203)"/>
<path d="M102.461 114.491H114.119V85.5078H102.461V114.491Z" fill="#DB676B"/>
<path d="M91.746 97.5274H84.8906V85.5078H91.746V97.5274Z" fill="#DB676B"/>
<path d="M72.765 30.5148H53.8047V17.7756C53.8047 16.2998 54.9988 15.1035 56.4718 15.1035H72.765C74.2379 15.1035 75.4318 16.2998 75.4318 17.7756V27.8427C75.4318 29.3185 74.2379 30.5148 72.765 30.5148Z" fill="url(#paint3_linear_2180_5203)"/>
<path d="M72.765 30.5148H53.8047V17.7756C53.8047 16.2998 54.9988 15.1035 56.4718 15.1035H72.765C74.2379 15.1035 75.4318 16.2998 75.4318 17.7756V27.8427C75.4318 29.3185 74.2379 30.5148 72.765 30.5148Z" fill="url(#paint4_linear_2180_5203)"/>
<path d="M63.3027 26.9592L59.0625 22.7109L60.4664 21.3043L63.3027 24.1464L68.7745 18.6641L70.1782 20.0705L63.3027 26.9592Z" fill="white"/>
<path d="M44.5124 122.713C44.5124 123.906 36.0887 124.874 25.6976 124.874C15.3065 124.874 6.88281 123.906 6.88281 122.713C6.88281 121.519 15.3065 120.551 25.6976 120.551C36.0887 120.551 44.5124 121.519 44.5124 122.713Z" fill="#E8F6F6"/>
<path d="M61.8305 52.0263C63.0929 50.7743 63.1033 48.7341 61.8539 47.4692C60.6041 46.2044 58.5677 46.1938 57.3053 47.4458C56.0428 48.6978 56.0324 50.7382 57.2819 52.003C58.5315 53.2679 60.5679 53.2783 61.8305 52.0263Z" fill="#CE6D6E"/>
<path d="M41.7324 64.2328C42.6191 63.3535 44.0497 63.3609 44.9273 64.2493C45.8051 65.1378 45.7978 66.5709 44.911 67.4504C44.0241 68.3298 42.5938 68.3224 41.7161 67.4339C40.8383 66.5455 40.8456 65.1123 41.7324 64.2328Z" fill="#CE6D6E"/>
<path d="M55.9824 50.0943C56.8691 49.2148 58.2997 49.2222 59.1773 50.1106C60.0551 50.9992 60.0478 52.4323 59.161 53.3117C58.2743 54.1911 56.8438 54.1838 55.9661 53.2954C55.0883 52.4069 55.0956 50.9736 55.9824 50.0943Z" fill="#CE6D6E"/>
<path d="M41.7344 64.2374L44.9129 67.4551L59.1692 53.3172L55.9905 50.0996L41.7344 64.2374Z" fill="#CE6D6E"/>
<path d="M44.9028 64.2159L41.7638 67.4722L27.3359 53.5102L30.4749 50.2539L44.9028 64.2159Z" fill="url(#paint5_linear_2180_5203)"/>
<path d="M30.4538 50.2585C31.3512 51.127 31.3761 52.5599 30.5093 53.4592C29.6424 54.3583 28.2121 54.3833 27.3147 53.5148C26.4173 52.6462 26.3924 51.2132 27.2592 50.3141C28.126 49.4149 29.5562 49.39 30.4538 50.2585Z" fill="#883232"/>
<path d="M38.9598 57.7252L35.0726 61.7576L27.3359 54.2707L31.2232 50.2383L38.9598 57.7252Z" fill="#FFEDC9"/>
<path d="M31.2257 50.238C32.3371 51.3135 32.3679 53.0882 31.2944 54.2017C30.221 55.3152 28.4498 55.346 27.3384 54.2706C26.2271 53.1951 26.1963 51.4204 27.2697 50.3069C28.3432 49.1934 30.1143 49.1626 31.2257 50.238Z" fill="#FFEDC9"/>
<path d="M25.5703 93.7949H32.8878V118.595H25.5703V93.7949Z" fill="url(#paint6_linear_2180_5203)"/>
<path d="M25.5703 118.599C25.5703 120.624 27.2083 122.265 29.2289 122.265C31.2497 122.265 32.8876 120.624 32.8876 118.599C32.8876 116.575 31.2497 114.934 29.2289 114.934C27.2083 114.934 25.5703 116.575 25.5703 118.599Z" fill="#5B808A"/>
<path d="M25.5703 93.7966C25.5703 95.821 27.2083 97.4624 29.2289 97.4624C31.2497 97.4624 32.8876 95.821 32.8876 93.7966C32.8876 91.7721 31.2497 90.1309 29.2289 90.1309C27.2083 90.1309 25.5703 91.7721 25.5703 93.7966Z" fill="#7A9DA7"/>
<path d="M25.5703 93.7927H32.8878V68.9922H25.5703V93.7927Z" fill="#7A9DA7"/>
<path d="M25.5703 68.9899C25.5703 71.0142 27.2083 72.6555 29.2289 72.6555C31.2497 72.6555 32.8876 71.0142 32.8876 68.9899C32.8876 66.9654 31.2497 65.3242 29.2289 65.3242C27.2083 65.3242 25.5703 66.9654 25.5703 68.9899Z" fill="#7A9DA7"/>
<path d="M25.5703 123.317H33.1437V118.59H25.5703V123.317Z" fill="#3E2455"/>
<path d="M35.9722 123.317H33.1406V118.59H35.9722C37.275 118.59 38.3312 119.648 38.3312 120.953C38.3312 122.258 37.275 123.317 35.9722 123.317Z" fill="#3E2455"/>
<path d="M30.7734 120.953C30.7734 122.258 31.8295 123.317 33.1323 123.317C34.435 123.317 35.4911 122.258 35.4911 120.953C35.4911 119.648 34.435 118.59 33.1323 118.59C31.8295 118.59 30.7734 119.648 30.7734 120.953Z" fill="#3E2455"/>
<path d="M25.5441 93.7949H18.2266V118.595H25.5441V93.7949Z" fill="url(#paint7_linear_2180_5203)"/>
<path d="M25.5441 118.599C25.5441 120.624 23.906 122.265 21.8853 122.265C19.8647 122.265 18.2266 120.624 18.2266 118.599C18.2266 116.575 19.8647 114.934 21.8853 114.934C23.906 114.934 25.5441 116.575 25.5441 118.599Z" fill="#7BAFAF"/>
<path d="M25.5441 93.7966C25.5441 95.821 23.906 97.4624 21.8853 97.4624C19.8647 97.4624 18.2266 95.821 18.2266 93.7966C18.2266 91.7721 19.8647 90.1309 21.8853 90.1309C23.906 90.1309 25.5441 91.7721 25.5441 93.7966Z" fill="#9FCECE"/>
<path d="M25.5441 93.7927H18.2266V68.9922H25.5441V93.7927Z" fill="#9FCECE"/>
<path d="M25.5441 68.9899C25.5441 71.0142 23.906 72.6555 21.8853 72.6555C19.8647 72.6555 18.2266 71.0142 18.2266 68.9899C18.2266 66.9654 19.8647 65.3242 21.8853 65.3242C23.906 65.3242 25.5441 66.9654 25.5441 68.9899Z" fill="#9FCECE"/>
<path d="M25.5497 123.317H17.9766V118.59H25.5497V123.317Z" fill="#3D3B6C"/>
<path d="M15.1403 123.317H17.9718V118.59H15.1403C13.8375 118.59 12.7812 119.648 12.7812 120.953C12.7812 122.258 13.8375 123.317 15.1403 123.317Z" fill="#3D3B6C"/>
<path d="M20.3429 120.953C20.3429 122.258 19.2867 123.317 17.9839 123.317C16.6812 123.317 15.625 122.258 15.625 120.953C15.625 119.648 16.6812 118.59 17.9839 118.59C19.2867 118.59 20.3429 119.648 20.3429 120.953Z" fill="#3D3B6C"/>
<path d="M25.544 76.3145C21.5027 76.3145 18.2266 73.0321 18.2266 68.9831V66.7402H32.8614V68.9831C32.8614 73.0321 29.5852 76.3145 25.544 76.3145Z" fill="#9FCECE"/>
<path d="M28.1144 48.8871H23.0703V45.375H28.1144V48.8871Z" fill="#B85556"/>
<path d="M27.6126 48.5918H23.5947C18.1834 48.5918 13.7969 52.987 13.7969 58.4085V58.4087C13.7969 61.8985 15.5889 64.9673 18.3 66.7472H32.9073C35.6184 64.9673 37.4104 61.8985 37.4104 58.4087V58.4085C37.4104 52.987 33.0238 48.5918 27.6126 48.5918Z" fill="url(#paint8_linear_2180_5203)"/>
<path d="M29.8701 67.7244C30.6216 66.7266 32.0381 66.528 33.0342 67.2811C34.0301 68.034 34.2283 69.4535 33.4767 70.4513C32.725 71.4491 31.3086 71.6477 30.3125 70.8948C29.3166 70.1417 29.1184 68.7224 29.8701 67.7244Z" fill="#CE6D6E"/>
<path d="M33.6544 68.026L29.6686 70.1588L20.2188 52.4317L24.2044 50.2988L33.6544 68.026Z" fill="url(#paint9_linear_2180_5203)"/>
<path d="M24.2056 50.2953C24.7934 51.398 24.3777 52.7694 23.2771 53.3583C22.1766 53.9473 20.8078 53.5308 20.22 52.4281C19.6322 51.3253 20.0478 49.954 21.1484 49.365C22.249 48.7761 23.6177 49.1926 24.2056 50.2953Z" fill="#883232"/>
<path d="M30.003 60.0234L25.0674 62.6646L20 53.1587L24.9356 50.5176L30.003 60.0234Z" fill="#FFEDC9"/>
<path d="M24.9302 50.5201C25.6581 51.8856 25.1433 53.5839 23.7804 54.3133C22.4175 55.0426 20.7225 54.5268 19.9945 53.1613C19.2666 51.7958 19.7815 50.0975 21.1444 49.3683C22.5073 48.6389 24.2023 49.1546 24.9302 50.5201Z" fill="#FFEDC9"/>
<path d="M41.9482 51.6854C42.6998 50.6875 44.1163 50.489 45.1123 51.242C46.1083 51.995 46.3064 53.4145 45.5548 54.4123C44.8032 55.4101 43.3867 55.6087 42.3907 54.8558C41.3947 54.1027 41.1966 52.6833 41.9482 51.6854Z" fill="#CE6D6E"/>
<path d="M29.8672 67.7258L33.4739 70.4528L45.5562 54.4105L41.9495 51.6836L29.8672 67.7258Z" fill="#CE6D6E"/>
<path d="M48.0105 52.7535C49.0804 51.3328 48.7983 49.3122 47.3805 48.2402C45.9625 47.1683 43.9457 47.4507 42.8756 48.8714C41.8057 50.2921 42.0878 52.3129 43.5058 53.3849C44.9236 54.4568 46.9404 54.1741 48.0105 52.7535Z" fill="#CE6D6E"/>
<path d="M25.6013 47.8305C20.7431 47.8305 16.8047 43.8847 16.8047 39.0172V31.8251C16.8047 26.9576 20.7431 23.0117 25.6013 23.0117C30.4596 23.0117 34.398 26.9576 34.398 31.8251V39.0172C34.398 43.8847 30.4596 47.8305 25.6013 47.8305Z" fill="url(#paint10_linear_2180_5203)"/>
<path d="M15.3281 32.3141C15.3281 33.0312 15.9084 33.6125 16.6241 33.6125C17.3399 33.6125 17.9201 33.0312 17.9201 32.3141C17.9201 31.5969 17.3399 31.0156 16.6241 31.0156C15.9084 31.0156 15.3281 31.5969 15.3281 32.3141Z" fill="#AF5455"/>
<path d="M32.8712 35.9473C32.8712 38.3477 30.9291 40.2935 28.5333 40.2935C26.1375 40.2935 24.1953 38.3477 24.1953 35.9473H32.8712Z" fill="white"/>
<path d="M40.7784 60.4164H55.7474C56.5632 60.4164 57.2761 59.8756 57.4827 59.1002L63.0239 38.2885C63.1827 37.6922 62.7248 37.1094 62.0975 37.1094H47.1285C46.3128 37.1094 45.5998 37.6502 45.3933 38.4257L39.852 59.2373C39.6932 59.8337 40.1511 60.4164 40.7784 60.4164Z" fill="#9EBACC"/>
<path d="M48.948 44.7908H55.0931C55.428 44.7908 55.7207 44.5688 55.8055 44.2506L58.0803 35.7066C58.1454 35.4618 57.9575 35.2227 57.7 35.2227H51.555C51.22 35.2227 50.9274 35.4446 50.8427 35.763L48.5677 44.3069C48.5025 44.5517 48.6905 44.7908 48.948 44.7908Z" fill="#9EBACC"/>
<defs>
<linearGradient id="paint0_linear_2180_5203" x1="44.4344" y1="85.5866" x2="73.2602" y2="114.358" gradientUnits="userSpaceOnUse">
<stop offset="0.7" stop-color="#FEA48D"/>
<stop offset="0.85" stop-color="#FE8E7A"/>
<stop offset="1" stop-color="#FE7867"/>
</linearGradient>
<linearGradient id="paint1_linear_2180_5203" x1="64.6297" y1="56.6686" x2="93.4555" y2="85.4403" gradientUnits="userSpaceOnUse">
<stop offset="0.7" stop-color="#FEA48D"/>
<stop offset="0.85" stop-color="#FE8E7A"/>
<stop offset="1" stop-color="#FE7867"/>
</linearGradient>
<linearGradient id="paint2_linear_2180_5203" x1="73.9344" y1="85.5866" x2="102.76" y2="114.358" gradientUnits="userSpaceOnUse">
<stop offset="0.7" stop-color="#FEA48D"/>
<stop offset="0.85" stop-color="#FE8E7A"/>
<stop offset="1" stop-color="#FE7867"/>
</linearGradient>
<linearGradient id="paint3_linear_2180_5203" x1="51.7742" y1="8.52491" x2="77.5166" y2="37.0444" gradientUnits="userSpaceOnUse">
<stop offset="0.5" stop-color="#9CDB6C"/>
<stop offset="0.75" stop-color="#82D245"/>
<stop offset="1" stop-color="#67C81E"/>
</linearGradient>
<linearGradient id="paint4_linear_2180_5203" x1="51.7742" y1="8.52491" x2="77.5166" y2="37.0444" gradientUnits="userSpaceOnUse">
<stop offset="0.5" stop-color="#9CDB6C"/>
<stop offset="0.75" stop-color="#82D245"/>
<stop offset="1" stop-color="#67C81E"/>
</linearGradient>
<linearGradient id="paint5_linear_2180_5203" x1="29.0551" y1="51.7853" x2="43.2107" y2="65.9137" gradientUnits="userSpaceOnUse">
<stop offset="0.2" stop-color="#893232"/>
<stop offset="0.5" stop-color="#AC5051"/>
<stop offset="0.8" stop-color="#CF6E6F"/>
</linearGradient>
<linearGradient id="paint6_linear_2180_5203" x1="29.2291" y1="93.9699" x2="29.2291" y2="118.42" gradientUnits="userSpaceOnUse">
<stop offset="0.2" stop-color="#7A9DA8"/>
<stop offset="0.5" stop-color="#6B8F99"/>
<stop offset="0.8" stop-color="#5C808A"/>
</linearGradient>
<linearGradient id="paint7_linear_2180_5203" x1="21.8853" y1="93.9699" x2="21.8853" y2="118.42" gradientUnits="userSpaceOnUse">
<stop offset="0.2" stop-color="#9FCFCF"/>
<stop offset="0.5" stop-color="#8DBFBF"/>
<stop offset="0.8" stop-color="#7BAFAF"/>
</linearGradient>
<linearGradient id="paint8_linear_2180_5203" x1="25.6037" y1="48.404" x2="25.6037" y2="66.935" gradientUnits="userSpaceOnUse">
<stop stop-color="#FFEDC7"/>
<stop offset="0.5" stop-color="#FAE3B2"/>
<stop offset="1" stop-color="#F5D99D"/>
</linearGradient>
<linearGradient id="paint9_linear_2180_5203" x1="22.1843" y1="51.3494" x2="31.7172" y2="69.093" gradientUnits="userSpaceOnUse">
<stop offset="0.2" stop-color="#893232"/>
<stop offset="0.5" stop-color="#AC5051"/>
<stop offset="0.8" stop-color="#CF6E6F"/>
</linearGradient>
<linearGradient id="paint10_linear_2180_5203" x1="24.8307" y1="23.0672" x2="26.3779" y2="47.7747" gradientUnits="userSpaceOnUse">
<stop offset="0.8" stop-color="#CC6667"/>
<stop offset="0.9" stop-color="#C1595A"/>
<stop offset="1" stop-color="#B54C4D"/>
</linearGradient>
</defs>
</svg>
