<svg width="122" height="122" viewBox="0 0 122 122" fill="none" xmlns="http://www.w3.org/2000/svg">
<path d="M59.42 115.355C59.42 115.355 56.4757 108.864 61.2581 104.342C66.0405 99.8282 66.8945 100.219 68.6676 96.5423C70.4488 92.8661 72.0348 88.7913 75.4671 87.8803C78.8993 86.9613 81.9331 88.3683 84.5683 88.1406C87.8541 87.8559 88.7651 85.7006 93.2384 84.8547C97.5572 84.0495 100.591 87.3517 102.429 90.8978C104.267 94.4439 103.161 94.5497 108.423 95.729C113.694 96.9083 115.158 100.764 115.564 104.342C115.963 107.791 121.77 106.254 118.956 115.355H59.42Z" fill="#006B27"/>
<path d="M96.8266 87.3535L90.1328 115.357" stroke="white" stroke-width="0.446777" stroke-miterlimit="10"/>
<path d="M109.611 99.3984L93.1406 115.356" stroke="white" stroke-width="0.446777" stroke-miterlimit="10"/>
<path d="M117.316 109.662L96.0469 115.355" stroke="white" stroke-width="0.446777" stroke-miterlimit="10"/>
<path d="M75.6016 90.6465L87.9236 115.356" stroke="white" stroke-width="0.446777" stroke-miterlimit="10"/>
<path d="M64.3516 105.789L84.9777 115.354" stroke="white" stroke-width="0.446777" stroke-miterlimit="10"/>
<path d="M103.519 40.0085C113.19 40.0085 121.03 32.1685 121.03 22.4974C121.03 12.8263 113.19 4.98633 103.519 4.98633C93.8478 4.98633 86.0078 12.8263 86.0078 22.4974C86.0078 32.1685 93.8478 40.0085 103.519 40.0085Z" fill="#FFC000"/>
<path d="M24.1878 95.5093C24.4699 93.7712 23.2896 92.1335 21.5515 91.8514C19.8134 91.5693 18.1757 92.7496 17.8936 94.4877C17.6115 96.2258 18.7918 97.8635 20.5299 98.1456C22.268 98.4277 23.9057 97.2473 24.1878 95.5093Z" stroke="#FF478B" stroke-width="0.893555" stroke-miterlimit="10"/>
<path d="M47.7464 35.9792C48.3528 35.9792 48.8444 35.4876 48.8444 34.8812C48.8444 34.2748 48.3528 33.7832 47.7464 33.7832C47.14 33.7832 46.6484 34.2748 46.6484 34.8812C46.6484 35.4876 47.14 35.9792 47.7464 35.9792Z" fill="#FF4B85"/>
<path d="M95.6776 115.81H90.3828L101.558 19.0879H106.853C108.366 19.0879 109.447 20.3079 109.268 21.8207L98.7195 113.077C98.5487 114.59 97.1904 115.81 95.6776 115.81Z" fill="#006AD3"/>
<path d="M50.0793 115.81H89.8107C91.3885 115.81 92.8119 114.533 92.9989 112.955L103.515 21.9427C103.702 20.3648 102.564 19.0879 100.986 19.0879H61.2545C59.6767 19.0879 58.2533 20.3648 58.0663 21.9427L47.5499 112.955C47.3709 114.533 48.5015 115.81 50.0793 115.81Z" fill="#2E3744"/>
<path d="M50.4141 110.602H90.6741L100.646 24.291H60.3855L50.4141 110.602Z" fill="white"/>
<path d="M101.975 61.3853C102.683 61.3853 103.326 60.8079 103.407 60.1003L105.798 39.3847C105.879 38.6771 105.367 38.0996 104.659 38.0996C103.952 38.0996 103.309 38.6771 103.228 39.3847L100.837 60.1003C100.755 60.8079 101.26 61.3853 101.975 61.3853Z" stroke="white" stroke-width="0.378867" stroke-miterlimit="10"/>
<path d="M104.011 39.3656C103.979 39.6503 104.182 39.8699 104.459 39.8699C104.735 39.8699 104.995 39.6421 105.02 39.3656C105.052 39.0809 104.849 38.8613 104.572 38.8613C104.296 38.8613 104.044 39.0809 104.011 39.3656Z" stroke="white" stroke-width="0.378867" stroke-miterlimit="10"/>
<path d="M78.4977 22.1335H85.7201C86.0048 22.1335 86.2569 21.9058 86.2813 21.6293C86.3139 21.3446 86.1105 21.125 85.834 21.125H78.6116C78.3269 21.125 78.0748 21.3527 78.0504 21.6293C78.0179 21.9139 78.2131 22.1335 78.4977 22.1335Z" fill="#006AD3"/>
<path d="M75.3499 21.6261C75.293 22.106 75.6346 22.4964 76.1145 22.4964C76.5944 22.4964 77.0254 22.106 77.0823 21.6261C77.1393 21.1463 76.7977 20.7559 76.3178 20.7559C75.838 20.7559 75.3987 21.1463 75.3499 21.6261Z" fill="#006AD3"/>
<path d="M45.602 66.6772L33.7761 66.4495L11.9219 66.0347L12.0601 64.9286L16.932 27.377L25.0979 27.5559L29.1645 27.6454L38.7781 27.8487L39.0628 27.8568L41.9664 45.0832L42.9668 51.0368V51.045L43.2677 52.8018L43.5443 54.461L44.2275 58.487L44.5772 60.6098L45.4149 65.5548L45.602 66.6772Z" fill="#FF4B85"/>
<path d="M29.1635 27.6442L28.3095 33.7848H24.2266L25.0968 27.5547L29.1635 27.6442Z" fill="#FFD7E5"/>
<path d="M38.7836 27.793L33.7734 66.4507L45.5993 66.6784L39.0601 27.858L38.7836 27.793Z" fill="#FF1F70"/>
<path d="M36.7746 44.9784L36.3828 65.3809L65.6082 65.9421L66 45.5396L36.7746 44.9784Z" fill="#FFC000"/>
<path d="M36.0124 44.9701L35.8984 50.9062L66.6363 51.4965L66.7503 45.5604L36.0124 44.9701Z" fill="#FFC000"/>
<path d="M49.2512 45.2128L48.8594 65.6152L53.1285 65.6972L53.5203 45.2948L49.2512 45.2128Z" fill="white"/>
<path opacity="0.26" d="M65.8071 55.2182L36.6328 52.095L36.6491 50.9238L65.8803 51.485L65.8071 55.2182Z" fill="black"/>
<path d="M79.4083 69.1762C79.8637 69.1356 80.1159 68.6313 79.8719 68.2409C77.2529 64.1417 73.3164 52.4622 60.8073 53.178C50.1852 53.788 37.9445 54.9429 32.4952 55.4797C31.5517 55.5692 31.2671 56.8054 32.0723 57.3016L33.4875 58.1881C34.5855 58.8713 35.8705 59.1804 37.1556 59.0746L47.0376 58.2532C49.3231 58.0661 51.5191 59.1885 52.6903 61.1568L61.9785 76.7484C62.1005 76.9517 62.3201 77.0656 62.556 77.0412L79.4083 69.1762Z" fill="#FF7F72"/>
<path d="M33.9936 64.8965C45.4698 59.7156 53.3916 57.7392 57.7999 56.9909C60.0935 56.6005 62.2976 58.0564 62.8344 60.3256L64.1927 66.1247C64.8027 68.7436 62.9483 71.2975 60.2724 71.5171L32.8956 73.7944C32.5134 73.8269 32.123 73.8107 31.7488 73.7375L3.33097 68.6135C2.50137 68.4671 2.15977 67.4667 2.72097 66.8404C3.44484 66.0352 6.25897 64.6281 8.6583 64.7908C12.6762 65.0673 28.0726 65.2544 32.123 65.3032C32.7736 65.2951 33.408 65.1649 33.9936 64.8965Z" fill="#FF7F72"/>
<path d="M76.6171 62.4863L86.1249 78.7611C86.1249 78.7611 79.9355 89.6191 66.0844 88.2527L60.5781 74.3773L76.6171 62.4863Z" fill="#FF7F72"/>
<path d="M84.5565 84.2129C84.5565 84.2129 83.2715 86.5716 77.5781 88.9384" stroke="#006AD3" stroke-width="0.446777" stroke-miterlimit="10"/>
<path d="M62.9844 86.5703C62.9844 86.5703 64.8062 90.6451 66.6362 90.4336" stroke="#006AD3" stroke-width="0.446777" stroke-miterlimit="10"/>
<path d="M75.0078 91.5072C75.0078 91.5072 78.0985 91.068 80.8882 89.3438" stroke="#006AD3" stroke-width="0.446777" stroke-miterlimit="10"/>
<path d="M4.89641 52.9979C6.83692 52.9979 8.41001 51.4248 8.41001 49.4843C8.41001 47.5438 6.83692 45.9707 4.89641 45.9707C2.9559 45.9707 1.38281 47.5438 1.38281 49.4843C1.38281 51.4248 2.9559 52.9979 4.89641 52.9979Z" fill="#FFC000"/>
<path d="M42.2835 19.9327C40.486 20.3719 40.1281 20.7298 39.6808 22.5354C39.2416 20.7379 38.8837 20.3801 37.0781 19.9327C38.8756 19.4935 39.2335 19.1357 39.6808 17.3301C40.12 19.1357 40.4779 19.4935 42.2835 19.9327Z" fill="#FFC000"/>
<path d="M29.9394 115.656C29.9394 115.656 28.7275 113.167 30.6958 111.443C32.6559 109.711 33.0056 109.865 33.7376 108.458C34.4696 107.051 35.1203 105.49 36.5274 105.14C37.9344 104.79 39.1788 105.327 40.2606 105.238C41.6026 105.124 41.9848 104.302 43.8148 103.977C45.5879 103.668 46.8323 104.928 47.5887 106.287C48.3451 107.645 47.8896 107.686 50.0531 108.141C52.2166 108.597 52.8103 110.069 52.9811 111.435C53.1438 112.753 55.5268 112.167 54.3719 115.648L29.9394 115.656Z" fill="#006B27"/>
<path d="M45.2878 104.936L42.5469 115.655" stroke="white" stroke-width="0.446777" stroke-miterlimit="10"/>
<path d="M50.5322 109.549L43.7734 115.657" stroke="white" stroke-width="0.446777" stroke-miterlimit="10"/>
<path d="M53.6958 113.475L44.9688 115.654" stroke="white" stroke-width="0.446777" stroke-miterlimit="10"/>
<path d="M36.5859 106.195L41.6367 115.654" stroke="white" stroke-width="0.446777" stroke-miterlimit="10"/>
<path d="M31.9688 111.996L40.4274 115.656" stroke="white" stroke-width="0.446777" stroke-miterlimit="10"/>
</svg>
