<svg width="44" height="26" viewBox="0 0 44 26" fill="none" xmlns="http://www.w3.org/2000/svg">
<rect x="0.05" y="0.05" width="43.9" height="25.9" fill="white" stroke="#979797" stroke-width="0.1"/>
<path d="M24.6523 18.7227C26.1696 18.7227 27.4179 18.3485 28.2861 17.6904C29.1527 17.0336 29.6451 16.0913 29.6504 14.9434L29.6396 14.6807C29.5314 13.4046 28.5979 12.6973 27.6406 12.1572C27.3858 12.0134 27.131 11.8828 26.8906 11.7559C26.6511 11.6294 26.4251 11.5068 26.2314 11.3809C25.8969 11.1633 25.6381 10.9238 25.584 10.6191L25.5742 10.4844C25.5851 10.0346 26.0099 9.59079 26.8662 9.47949V9.47852C27.2833 9.42328 28.4088 9.38373 29.6943 9.9541L30.1768 7.70898C29.489 7.46292 28.6144 7.23145 27.5322 7.23145C26.1061 7.23151 24.8969 7.61101 24.0439 8.25586C23.2453 8.85974 22.7569 9.69759 22.6924 10.6826L22.6855 10.8818C22.6756 11.6686 23.0255 12.283 23.5176 12.7695C23.8875 13.1353 24.3364 13.427 24.7695 13.6631L25.1934 13.8818C25.7604 14.1578 26.1467 14.3872 26.3906 14.6133C26.6378 14.8424 26.7426 15.0712 26.7402 15.3398L26.7275 15.4883C26.6725 15.8204 26.4458 16.0633 26.1455 16.2266C25.8036 16.4125 25.3585 16.5003 24.9326 16.5068L24.6631 16.5059C23.4006 16.4783 22.616 16.1166 21.9932 15.8252L21.4941 18.1533C22.1714 18.4517 23.388 18.7109 24.6523 18.7227ZM32.5713 18.5479L33.1631 16.9131L33.1797 16.8691H37.0117L37.0225 16.9219L37.3633 18.5479H39.918L37.5977 7.4375H35.168C34.7041 7.4375 34.3045 7.67348 34.0781 8.05078L33.9922 8.2207L29.667 18.5479H32.5713ZM12.9111 18.5479L17.5674 7.4375H14.6592L11.6475 15.0488L11.5625 15.2637L11.5195 15.0361L10.2949 8.5293C10.1575 7.83449 9.61775 7.43771 9.01953 7.4375H4.12305L4.0791 7.64648C4.95321 7.83998 5.923 8.12989 6.61621 8.45117L6.90234 8.59473C7.12112 8.71356 7.26907 8.82835 7.37891 8.98926C7.46032 9.10858 7.51833 9.25056 7.57227 9.43066L7.62598 9.625L9.93262 18.5479H12.9111ZM19.3662 18.5479L21.7422 7.4375H18.9707L16.5938 18.5479H19.3662ZM34 14.6074L35.5322 10.3848L35.6123 10.1631L35.6602 10.3945L36.541 14.6162L36.5586 14.6973H33.9678L34 14.6074Z" fill="url(#paint0_linear_213_1170)" stroke="#979797" stroke-width="0.13393"/>
<defs>
<linearGradient id="paint0_linear_213_1170" x1="1659.06" y1="42.1102" x2="1692.71" y2="-1151.81" gradientUnits="userSpaceOnUse">
<stop stop-color="#222357"/>
<stop offset="1" stop-color="#254AA5"/>
</linearGradient>
</defs>
</svg>
