<svg width="24" height="25" viewBox="0 0 24 25" fill="none" xmlns="http://www.w3.org/2000/svg">
<path d="M24 12.0349C24 5.41688 18.624 0.046875 12 0.046875C5.376 0.046875 0 5.41688 0 12.0349C0 15.6799 1.656 18.9649 4.248 21.1699C4.272 21.1939 4.296 21.1939 4.296 21.2179C4.512 21.3859 4.728 21.5539 4.968 21.7219C5.088 21.7939 5.184 21.8884 5.304 21.9844C7.28791 23.3272 9.62834 24.0456 12.024 24.0469C14.4197 24.0456 16.7601 23.3272 18.744 21.9844C18.864 21.9124 18.96 21.8179 19.08 21.7444C19.296 21.5779 19.536 21.4099 19.752 21.2419C19.776 21.2179 19.8 21.2179 19.8 21.1939C22.344 18.9634 24 15.6799 24 12.0349ZM12 22.5364C9.744 22.5364 7.68 21.8164 5.976 20.6179C6 20.4259 6.048 20.2354 6.096 20.0434C6.23948 19.5232 6.4492 19.0236 6.72 18.5569C6.984 18.1009 7.296 17.6929 7.68 17.3329C8.04 16.9729 8.472 16.6384 8.904 16.3744C9.36 16.1104 9.84 15.9184 10.368 15.7744C10.9003 15.6318 11.449 15.5597 12 15.5599C13.6361 15.5475 15.2123 16.1752 16.392 17.3089C16.944 17.8609 17.376 18.5084 17.688 19.2514C17.856 19.6834 17.976 20.1389 18.048 20.6179C16.2768 21.8631 14.1652 22.5329 12 22.5364ZM8.328 11.4364C8.11697 10.9521 8.01064 10.4286 8.016 9.90038C8.016 9.37388 8.112 8.84588 8.328 8.36588C8.544 7.88588 8.832 7.45538 9.192 7.09538C9.552 6.73538 9.984 6.44888 10.464 6.23288C10.944 6.01688 11.472 5.92088 12 5.92088C12.552 5.92088 13.056 6.01688 13.536 6.23288C14.016 6.44888 14.448 6.73688 14.808 7.09538C15.168 7.45538 15.456 7.88738 15.672 8.36588C15.888 8.84588 15.984 9.37388 15.984 9.90038C15.984 10.4524 15.888 10.9564 15.672 11.4349C15.4647 11.9084 15.1718 12.3397 14.808 12.7069C14.4407 13.0702 14.0094 13.3626 13.536 13.5694C12.5441 13.9761 11.4319 13.9761 10.44 13.5694C9.96656 13.3626 9.53534 13.0702 9.168 12.7069C8.80387 12.3449 8.51796 11.9134 8.328 11.4364ZM19.464 19.3954C19.464 19.3474 19.44 19.3234 19.44 19.2754C19.2044 18.5243 18.8564 17.8133 18.408 17.1664C17.9592 16.5147 17.4081 15.9398 16.776 15.4639C16.2931 15.1005 15.7696 14.7944 15.216 14.5519C15.4667 14.3842 15.6998 14.1917 15.912 13.9774C16.2698 13.6241 16.584 13.2293 16.848 12.8014C17.3814 11.9289 17.656 10.9229 17.64 9.90038C17.6478 9.14361 17.5008 8.39323 17.208 7.69538C16.9192 7.02285 16.5037 6.41223 15.984 5.89688C15.4638 5.38845 14.8534 4.98149 14.184 4.69688C13.4851 4.40415 12.7337 4.25765 11.976 4.26638C11.2182 4.25812 10.4668 4.40514 9.768 4.69838C9.09127 4.97952 8.47884 5.39546 7.968 5.92088C7.45692 6.43833 7.0496 7.04881 6.768 7.71938C6.47517 8.41723 6.32816 9.16761 6.336 9.92438C6.336 10.4524 6.408 10.9559 6.552 11.4349C6.696 11.9389 6.888 12.3949 7.152 12.8254C7.392 13.2574 7.728 13.6414 8.088 14.0014C8.304 14.2174 8.544 14.4089 8.808 14.5759C8.25195 14.8234 7.72809 15.1377 7.248 15.5119C6.624 15.9919 6.072 16.5664 5.616 17.1904C5.16341 17.8348 4.81514 18.5466 4.584 19.2994C4.56 19.3474 4.56 19.3954 4.56 19.4194C2.664 17.5009 1.488 14.9119 1.488 12.0349C1.488 6.25688 6.216 1.53338 12 1.53338C17.784 1.53338 22.512 6.25688 22.512 12.0349C22.5089 14.7948 21.413 17.4412 19.464 19.3954Z" fill="white"/>
</svg>
