<svg width="42" height="43" viewBox="0 0 42 43" fill="none" xmlns="http://www.w3.org/2000/svg">
<path d="M7.67172 14.9993C7.17822 15.5873 6.39203 16.0532 5.60715 15.985C5.50347 15.1922 5.89459 14.343 6.34609 13.8167C6.83828 13.2169 7.69928 12.7864 8.39753 12.751C8.48022 13.5792 8.15603 14.3929 7.67172 14.9993ZM8.38966 16.1412C7.24909 16.0716 6.26997 16.7961 5.72922 16.7961C5.17665 16.7961 4.34847 16.1753 3.44678 16.1963C2.27734 16.2107 1.18403 16.8788 0.589467 17.9537C-0.64822 20.0918 0.267904 23.2575 1.45703 25.0005C2.03847 25.8615 2.73409 26.8052 3.65153 26.779C4.51909 26.7435 4.86822 26.2054 5.91428 26.2054C6.97347 26.2054 7.27403 26.779 8.19803 26.758C9.14697 26.7435 9.74809 25.897 10.3295 25.036C10.9923 24.0582 11.2653 23.1 11.2798 23.0528C11.2653 23.0318 9.44097 22.3283 9.42784 20.2086C9.4134 18.4302 10.8624 17.5836 10.9241 17.535C10.1103 16.3052 8.82541 16.1753 8.38834 16.1425L8.38966 16.1412ZM14.9732 13.734V26.6687H16.9616V22.2469H19.7113C22.2195 22.2469 23.9835 20.5039 23.9835 17.9879C23.9835 15.4665 22.2549 13.7354 19.7795 13.7354L14.9732 13.734ZM16.9616 15.4298H19.2519C20.9739 15.4298 21.9596 16.359 21.9596 17.9931C21.9596 19.6272 20.9739 20.5643 19.2388 20.5643H16.9616V15.4298ZM27.6047 26.7645C28.8555 26.7645 30.0105 26.1293 30.5381 25.116H30.5801V26.6687H32.4176V20.2283C32.4176 18.3698 30.9423 17.161 28.6652 17.161C26.5599 17.161 25.0007 18.3842 24.9468 20.059H26.7305C26.8815 19.2597 27.606 18.7399 28.6113 18.7399C29.828 18.7399 30.5053 19.3135 30.5053 20.3674V21.0775L28.0312 21.2284C25.7199 21.3715 24.4757 22.3217 24.4757 23.9834C24.4757 25.6581 25.7619 26.7659 27.606 26.7659L27.6047 26.7645ZM28.1454 25.2329C27.0849 25.2329 26.409 24.7197 26.409 23.9348C26.409 23.121 27.0587 22.642 28.295 22.5659L30.504 22.4294V23.1604C30.504 24.3719 29.4855 25.2329 28.1375 25.2329H28.1454ZM34.872 30.1889C36.8053 30.1889 37.7162 29.4368 38.5089 27.174L41.9949 17.2896H39.9789L37.6413 24.9244H37.5993L35.2618 17.2896H33.1841L36.548 26.7029L36.3695 27.2764C36.0611 28.2411 35.5702 28.6152 34.6948 28.6152C34.5373 28.6152 34.2367 28.5955 34.1133 28.5824V30.135C34.2288 30.1679 34.7223 30.1823 34.8654 30.1823L34.872 30.1889Z" fill="#868686"/>
</svg>
