<svg width="42" height="42" viewBox="0 0 42 42" fill="none" xmlns="http://www.w3.org/2000/svg">
<path d="M20.9966 0.770508L38.4966 6.89551V21.0005C38.4966 28.2228 34.0638 33.2715 29.9286 36.4058C27.4341 38.2808 24.6966 39.8085 21.7911 40.947L21.6388 41.0048L21.5951 41.0205L21.5828 41.024L21.5776 41.0258C21.5758 41.0258 21.5741 41.0258 20.9966 39.3755L20.4173 41.0275L20.4103 41.024L20.3981 41.0205L20.3543 41.003L20.2021 40.947C19.3767 40.6278 18.5652 40.274 17.7696 39.8865C15.7612 38.9109 13.8509 37.7453 12.0646 36.4058C7.93108 33.2715 3.49658 28.2228 3.49658 21.0005V6.89551L20.9966 0.770508ZM20.9966 39.3755L20.4173 41.0275L20.9966 41.2305L21.5758 41.0275L20.9966 39.3755ZM20.9966 37.4995L21.0123 37.4925C23.4337 36.4916 25.7192 35.1893 27.8146 33.6163C31.5561 30.783 34.9966 26.6408 34.9966 21.0005V9.38051L20.9966 4.48051L6.99658 9.38051V21.0005C6.99658 26.6408 10.4371 30.7795 14.1786 33.618C16.2786 35.194 18.5694 36.4982 20.9966 37.4995ZM31.6226 14.6008L19.2483 26.975L11.8231 19.5515L14.2993 17.0753L19.2466 22.026L29.1463 12.1263L31.6226 14.6008Z" fill="#2DC937"/>
</svg>
