<svg width="24" height="25" viewBox="0 0 24 25" fill="none" xmlns="http://www.w3.org/2000/svg">
<path fill-rule="evenodd" clip-rule="evenodd" d="M10.8921 1.73439C11.2673 1.63463 11.4907 1.24952 11.391 0.874226C11.2912 0.498935 10.9061 0.275574 10.5308 0.375335L9.72422 0.589742C8.80003 0.835409 8.15672 1.67205 8.15672 2.62832V3.22377C6.65264 3.08977 5.29735 4.27524 5.29735 5.84745V6.35173H3.79466C3.33637 6.35173 2.94526 6.68305 2.86992 7.13511L0.455321 21.6227C0.217223 23.0513 1.31888 24.3517 2.76718 24.3517H21.2338C22.6821 24.3517 23.7837 23.0513 23.5456 21.6227L21.131 7.13511C21.0557 6.68305 20.6646 6.35173 20.2063 6.35173H18.9943C19.031 6.25644 19.065 6.16072 19.0964 6.06551C19.3192 5.38991 19.456 4.60432 19.4888 3.85036C19.5211 3.10534 19.4544 2.33253 19.2248 1.70607C18.9985 1.089 18.5337 0.435101 17.6909 0.358884C16.9445 0.291391 16.2814 0.704808 15.7815 1.16645C15.2611 1.64706 14.7888 2.29671 14.4011 2.96938C14.0112 3.64595 13.6881 4.37853 13.4795 5.04776C13.3451 5.47906 13.2418 5.93469 13.2226 6.35173H12.7036V6.02961C12.7036 4.3235 11.2079 3.03832 9.56297 3.23511V2.62832C9.56297 2.30956 9.77743 2.03068 10.0855 1.94879L10.8921 1.73439ZM17.7608 5.62517C17.6566 5.94125 17.5435 6.1812 17.4381 6.35173H14.6312C14.6487 6.13812 14.7056 5.84 14.8221 5.46617C14.9974 4.90357 15.2771 4.26573 15.6195 3.67158C15.9642 3.07351 16.3538 2.55211 16.7356 2.19954C17.1379 1.82801 17.4172 1.74612 17.5642 1.75942C17.6147 1.76398 17.7595 1.79484 17.9044 2.19012C18.0459 2.57601 18.1119 3.14315 18.0838 3.78934C18.0562 4.42659 17.9395 5.08344 17.7608 5.62517ZM8.23875 4.66058C7.46194 4.45848 6.7036 5.04476 6.7036 5.84745V6.35173H11.2973V6.02961C11.2973 5.11948 10.4462 4.44888 9.56138 4.66178L9.51746 4.67235C9.09671 4.77357 8.65753 4.76953 8.23875 4.66058ZM4.19175 7.75798L1.84244 21.8539C1.7472 22.4253 2.18786 22.9455 2.76718 22.9455H21.2338C21.8131 22.9455 22.2538 22.4253 22.1585 21.8539L19.8092 7.75798H4.19175ZM17.5152 10.347C17.5989 9.96776 17.3593 9.59253 16.9801 9.50886C16.6009 9.42519 16.2256 9.66481 16.142 10.044C15.7068 12.0162 15.0293 13.4365 14.2746 14.3482C13.5225 15.2569 12.7278 15.6271 12.0151 15.6271C11.3026 15.6271 10.5098 15.2572 9.76078 14.3492C9.00914 13.4379 8.33574 12.018 7.90627 10.0459C7.82363 9.66645 7.44905 9.42584 7.0696 9.50848C6.69019 9.59108 6.44958 9.96566 6.53222 10.3451C6.99338 12.4628 7.74085 14.1103 8.67596 15.244C9.61374 16.3808 10.7735 17.0334 12.0151 17.0334C13.2565 17.0334 14.4174 16.3811 15.3579 15.2449C16.2959 14.1117 17.048 12.4646 17.5152 10.347Z" fill="white"/>
</svg>
