<svg width="11" height="17" viewBox="0 0 11 17" fill="none" xmlns="http://www.w3.org/2000/svg">
<path fill-rule="evenodd" clip-rule="evenodd" d="M2.5 3C2.5 2.20435 2.81607 1.44129 3.37868 0.87868C3.94129 0.316071 4.70435 0 5.5 0C6.29565 0 7.05871 0.316071 7.62132 0.87868C8.18393 1.44129 8.5 2.20435 8.5 3V9C8.5 9.79565 8.18393 10.5587 7.62132 11.1213C7.05871 11.6839 6.29565 12 5.5 12C4.70435 12 3.94129 11.6839 3.37868 11.1213C2.81607 10.5587 2.5 9.79565 2.5 9V3ZM5.5 1C4.96957 1 4.46086 1.21071 4.08579 1.58579C3.71071 1.96086 3.5 2.46957 3.5 3V9C3.5 9.53043 3.71071 10.0391 4.08579 10.4142C4.46086 10.7893 4.96957 11 5.5 11C6.03043 11 6.53914 10.7893 6.91421 10.4142C7.28929 10.0391 7.5 9.53043 7.5 9V3C7.5 2.46957 7.28929 1.96086 6.91421 1.58579C6.53914 1.21071 6.03043 1 5.5 1ZM0.5 8.5C0.632608 8.5 0.759785 8.55268 0.853553 8.64645C0.947322 8.74021 1 8.86739 1 9C1 10.1935 1.47411 11.3381 2.31802 12.182C3.16193 13.0259 4.30653 13.5 5.5 13.5C6.69347 13.5 7.83807 13.0259 8.68198 12.182C9.52589 11.3381 10 10.1935 10 9C10 8.86739 10.0527 8.74021 10.1464 8.64645C10.2402 8.55268 10.3674 8.5 10.5 8.5C10.6326 8.5 10.7598 8.55268 10.8536 8.64645C10.9473 8.74021 11 8.86739 11 9C11.0002 10.3723 10.4874 11.695 9.56228 12.7086C8.63717 13.7221 7.36658 14.3532 6 14.478V16H8.5C8.63261 16 8.75979 16.0527 8.85355 16.1464C8.94732 16.2402 9 16.3674 9 16.5C9 16.6326 8.94732 16.7598 8.85355 16.8536C8.75979 16.9473 8.63261 17 8.5 17H2.5C2.36739 17 2.24021 16.9473 2.14645 16.8536C2.05268 16.7598 2 16.6326 2 16.5C2 16.3674 2.05268 16.2402 2.14645 16.1464C2.24021 16.0527 2.36739 16 2.5 16H5V14.478C3.63342 14.3532 2.36283 13.7221 1.43772 12.7086C0.512609 11.695 -0.000193165 10.3723 5.4583e-08 9C5.4583e-08 8.86739 0.0526786 8.74021 0.146447 8.64645C0.240215 8.55268 0.367392 8.5 0.5 8.5Z" fill="white"/>
</svg>
