<svg width="24" height="23" viewBox="0 0 24 23" fill="none" xmlns="http://www.w3.org/2000/svg">
<path d="M3.2475 22.7045L3.2775 22.6985C6.0225 22.154 7.6995 21.4355 8.4795 21.041C9.62768 21.3483 10.8114 21.5026 12 21.5C18.627 21.5 24 16.799 24 11C24 5.201 18.627 0.5 12 0.5C5.373 0.5 0 5.201 0 11C0 13.64 1.1145 16.055 2.955 17.9C2.82672 19.0852 2.56299 20.2518 2.169 21.377L2.1645 21.3935C2.05241 21.7157 1.93035 22.0344 1.7985 22.349C1.68 22.628 1.9095 22.94 2.208 22.892C2.55548 22.8351 2.90202 22.7725 3.2475 22.7045ZM4.4475 18.0425C4.46851 17.8229 4.44082 17.6014 4.36641 17.3937C4.292 17.186 4.1727 16.9973 4.017 16.841C2.427 15.245 1.5 13.202 1.5 11C1.5 6.212 6.006 2 12 2C17.994 2 22.5 6.212 22.5 11C22.5 15.788 17.994 20 12 20C10.9426 20.0026 9.88946 19.8654 8.868 19.592C8.51097 19.4963 8.13118 19.5359 7.8015 19.703C7.221 19.997 5.9415 20.558 3.8505 21.0425C4.14196 20.0631 4.34182 19.0588 4.4475 18.0425Z" fill="#2E2D2D"/>
</svg>
