<svg width="19" height="16" viewBox="0 0 19 16" fill="none" xmlns="http://www.w3.org/2000/svg">
<path d="M17.5 15.5488C17.8978 15.5488 18.2794 15.4195 18.5607 15.1893C18.842 14.9591 19 14.6469 19 14.3213V11.457C19 11.1315 18.842 10.8192 18.5607 10.589C18.2794 10.3588 17.8978 10.2295 17.5 10.2295C16.33 10.2295 15.18 10.0822 14.08 9.77939C13.817 9.71146 13.5363 9.70377 13.2683 9.75715C13.0004 9.81052 12.7554 9.92294 12.56 10.0822L11.12 11.2606C8.63224 10.1496 6.58758 8.47637 5.23 6.44049L6.66 5.27023C7.07 4.95107 7.22 4.47643 7.04 4.01814C6.68 3.12613 6.5 2.18502 6.5 1.22754C6.5 0.901975 6.34196 0.589746 6.06066 0.359538C5.77936 0.12933 5.39782 0 5 0H1.5C1.10218 0 0.720644 0.12933 0.43934 0.359538C0.158035 0.589746 0 0.901975 0 1.22754C0 9.12471 7.85 15.5488 17.5 15.5488ZM1.5 0.818359H5C5.13261 0.818359 5.25979 0.861469 5.35355 0.938205C5.44732 1.01494 5.5 1.11902 5.5 1.22754C5.5 2.27504 5.7 3.29799 6.09 4.27184C6.14 4.38641 6.13 4.55008 5.97 4.68102L4 6.285C5.65 8.9283 8.07 10.9087 11.31 12.2754L13.26 10.6632C13.4 10.5487 13.59 10.5159 13.77 10.5568C14.97 10.8842 16.22 11.0479 17.5 11.0479C17.6326 11.0479 17.7598 11.091 17.8536 11.1677C17.9473 11.2444 18 11.3485 18 11.457V14.3213C18 14.4298 17.9473 14.5339 17.8536 14.6106C17.7598 14.6874 17.6326 14.7305 17.5 14.7305C8.4 14.7305 1 8.67461 1 1.22754C1 1.11902 1.05268 1.01494 1.14645 0.938205C1.24021 0.861469 1.36739 0.818359 1.5 0.818359Z" fill="#2F2C2C"/>
</svg>
