<svg width="22" height="21" viewBox="0 0 22 21" fill="none" xmlns="http://www.w3.org/2000/svg">
<path d="M3 9.5L2.515 9.621C2.08232 9.72915 1.69821 9.97882 1.4237 10.3303C1.1492 10.6818 1.00007 11.115 1 11.561V13.438C1.00007 13.884 1.1492 14.3172 1.4237 14.6687C1.69821 15.0202 2.08232 15.2698 2.515 15.378L4.255 15.813C4.34342 15.835 4.43569 15.8366 4.52481 15.8177C4.61393 15.7987 4.69757 15.7597 4.76937 15.7036C4.84118 15.6475 4.89926 15.5758 4.93922 15.4939C4.97918 15.412 4.99997 15.3221 5 15.231V9.768C5.00001 9.67677 4.97921 9.58675 4.93919 9.50477C4.89918 9.42279 4.84099 9.35101 4.76907 9.2949C4.69714 9.23879 4.61337 9.19981 4.52412 9.18094C4.43486 9.16207 4.34248 9.1638 4.254 9.186L3 9.5ZM3 9.5V9C3 6.87827 3.84285 4.84344 5.34315 3.34315C6.84344 1.84285 8.87827 1 11 1C13.1217 1 15.1566 1.84285 16.6569 3.34315C18.1571 4.84344 19 6.87827 19 9V9.5M19 9.5L19.485 9.621C19.9177 9.72915 20.3018 9.97882 20.5763 10.3303C20.8508 10.6818 20.9999 11.115 21 11.561V13.438C20.9999 13.884 20.8508 14.3172 20.5763 14.6687C20.3018 15.0202 19.9177 15.2698 19.485 15.378L19 15.5M19 9.5L17.745 9.186C17.6566 9.16398 17.5643 9.16239 17.4752 9.18134C17.3861 9.20029 17.3024 9.2393 17.2306 9.29539C17.1588 9.35148 17.1007 9.4232 17.0608 9.50508C17.0208 9.58697 17 9.67688 17 9.768V15.231C17 15.3221 17.0208 15.412 17.0608 15.4939C17.1007 15.5758 17.1588 15.6475 17.2306 15.7036C17.3024 15.7597 17.3861 15.7987 17.4752 15.8177C17.5643 15.8366 17.6566 15.835 17.745 15.813L19 15.5M19 15.5V16.5C19 17.0304 18.7893 17.5391 18.4142 17.9142C18.0391 18.2893 17.5304 18.5 17 18.5H14M14 18.5C14 18.1022 13.842 17.7206 13.5607 17.4393C13.2794 17.158 12.8978 17 12.5 17H9.5C9.10218 17 8.72064 17.158 8.43934 17.4393C8.15804 17.7206 8 18.1022 8 18.5C8 18.8978 8.15804 19.2794 8.43934 19.5607C8.72064 19.842 9.10218 20 9.5 20H12.5C12.8978 20 13.2794 19.842 13.5607 19.5607C13.842 19.2794 14 18.8978 14 18.5Z" stroke="#2F2C2C" stroke-width="1.5"/>
</svg>
